<svg xmlns="http://www.w3.org/2000/svg"><g fill="currentColor"><path d="M16.425 6.662c-2.8 1.606-2.323 6.293.715 6.293 1.31 0 2.443-.985 2.947-2.244 1.166-2.907-1.258-5.428-3.662-4.049zm-2.875.581c3.359 0 4.365-5.705 1.173-6.643-1.454-.427-3.107.598-3.638 2.472-.596 2.1.576 4.17 2.465 4.17z"/><path d="M12.685 17.396c-.466-.129-1.294-.212-2.16-.224-.917-.013-1.876.052-2.497.224-1.676.467-3.956-.662-3.456-3.009.463-2.168 2.126-2.045 2.52-4.1.395-2.078 1.935-3.08 3.432-3.002 1.386.073 2.734 1.072 3.101 3.002.391 2.057 2.05 1.932 2.513 4.1.502 2.348-1.783 3.472-3.453 3.01zM7.637 7.243c.95 0 1.766-.552 2.22-1.397C11.205 3.335 8.99-.142 6.463.602c-3.197.94-2.183 6.64 1.174 6.64z"/><path d="M6.119 11.087C7.197 8.448 4.64 5.224 2.199 6.24c-2.941 1.221-1.644 6.49 1.59 6.49 1.038 0 1.92-.639 2.33-1.642zm6.566 6.309c-.466-.129-1.294-.212-2.16-.224V7.285c1.385.073 2.733 1.072 3.1 3.002.391 2.057 2.05 1.932 2.513 4.1.502 2.348-1.783 3.472-3.453 3.01z"/></g></svg>