<svg viewBox="0 0 484 151" fill="none" xmlns="http://www.w3.org/2000/svg"><g opacity=".15" fill-rule="evenodd" clip-rule="evenodd"><path d="M370.831 52.052c9.242 11.032 7.183 39.54-3.192 47.43-5.77-16.302-3.743-31.774 3.192-47.43zm-41.62 65.161c-8.5-17.97-4.749-69.242 2.203-82.35 13.679 18.196 12.649 61.702-2.203 82.35zM91.007 43.858c11.525-.025 19.633 8.26 19.641 20.05.008 11.612-8.483 20.327-19.68 20.19-11.222-.129-19.178-8.403-19.25-19.984-.08-12.013 7.757-20.23 19.29-20.256zM285.58 19.65c22.881 30.757 18.013 89.688-3.025 111.859 1.014-37.259 2.003-73.97 3.025-111.859zm-131.468-7.422c27.877 40.392 20.159 99.441-2.953 124.13 6.009-42.036 4.517-83.058 2.953-124.13zm80.231 126.223c7.526-42.25 7.973-84.081 7.869-127.197 22.793 31.821 20.622 99.616-7.869 127.197zm-40.231 1.189c3.934-43.075 11.069-86.094 2.929-129.465 28.683 31.933 24.788 92.565-2.929 129.465zm256.104-61.508c13.248-8.14 23.28-18.708 29.976-32.158 8.819-17.756 2.075-29.16-17.693-30.901-10.583-.936-20.455 1.429-29.306 6.82-8.132 4.946-15.618 10.967-23.336 16.59-2.059 1.5-3.902 3.282-5.89 4.895-7.996 6.44-16.336 7.326-25.825 2.867-17.279-8.115-34.502-16.548-52.363-23.2C288.014 8.985 248.637 2.259 208.421.415 147.456-2.396 89.164 9.12 33.401 33.593 24.6 37.46 16.603 43.22 8.375 48.34c-1.98 1.223-3.56 3.22-4.988 5.104C-1.41 59.705-1.227 66.167 4.68 71.39c45.147 39.986 95.195 70.353 156.568 77.164 59.489 6.59 117.446.234 172.808-23.584 15.18-6.518 29.745-14.505 44.565-21.872 4.709-2.34 9.394-4.742 13.951-7.347 2.769-1.588 4.014-.743 5.642 1.775 4.509 6.939 8.891 14.065 14.238 20.327 10.615 12.427 24.262 17.188 40.383 13.441 11.412-2.643 16.456-10.496 14.565-21.987-2.035-12.293-8.651-22.111-17.183-31.175z" fill="#FAB751"/><path d="M194.112 139.64c27.718-36.9 31.612-97.532 2.929-129.465 8.141 43.371 1.006 86.39-2.929 129.465zm40.231-1.188c28.491-27.582 30.662-95.377 7.869-127.198.104 43.116-.343 84.946-7.869 127.198zM154.112 12.228c1.564 41.072 3.057 82.094-2.953 124.131 23.113-24.689 30.83-83.739 2.953-124.13zM285.58 19.65c-1.022 37.89-2.011 74.6-3.025 111.86 21.037-22.171 25.906-81.102 3.025-111.86zM91.008 43.858c-11.532.025-19.37 8.243-19.29 20.255.072 11.582 8.029 19.856 19.25 19.984 11.197.137 19.689-8.577 19.681-20.19-.008-11.79-8.117-20.074-19.641-20.049zm238.204 73.356c14.852-20.649 15.882-64.154 2.202-82.35-6.951 13.107-10.702 64.378-2.202 82.35zm41.619-65.163c-6.943 15.656-8.962 31.129-3.192 47.43 10.375-7.89 12.434-36.398 3.192-47.43z" fill="#fff"/></g></svg>