<svg width="75" height="75" fill="none" xmlns="http://www.w3.org/2000/svg"><rect width="75" height="75" rx="37.5" fill="#FAC663"/><path d="M38.867 38.42c2.7 0 4.908 2.838 4.908 3.547 0 .71-2.208 3.074-4.908 3.074s-4.662-3.074-4.662-3.074 1.963-3.547 4.662-3.547z" fill="#FFFDFB"/><path d="M31.26 39.13l2.945 2.837m0 0l-2.945 2.837m2.945-2.837s1.963 3.074 4.662 3.074c2.7 0 4.908-2.364 4.908-3.074s-2.208-3.547-4.908-3.547-4.662 3.547-4.662 3.547z" stroke="#FFFDFB" stroke-width="2" stroke-linecap="round" stroke-linejoin="round"/><path d="M56.092 32.123h0a.744.744 0 00-.47-.573l.063.412 2.867 18.841.062.404a.798.798 0 00.042-.043l-2.564-19.04zm0 0l2.741 18.468m-2.741-18.468l2.741 18.468M43.031 26.273a1.8 1.8 0 001.813.805h0c.326-.053.862.041 1.367.28.521.248.828.562.895.803a1.76 1.76 0 001.367 1.245l.06.062c.1.107.233.265.383.455.137.173.281.368.421.57H25.75a7.83 7.83 0 01.466-.481c.202-.193.392-.356.542-.47.076-.057.134-.096.173-.12l.005-.002a1.763 1.763 0 001.45-1.26h0c.068-.247.377-.56.9-.805.506-.237 1.042-.329 1.36-.277a1.799 1.799 0 001.813-.804l-.423-.267.423.266c.161-.255.49-.485.902-.602.412-.117.823-.099 1.115.039m8.555.563l.424-.265-.424.265s0 0 0 0zm0 0c-.063-.1-.19-.218-.398-.333a2.825 2.825 0 00-.729-.264c-.568-.128-1.102-.097-1.38.034h0c-.65.306-1.43.2-1.97-.275m0 0s0 0 0 0l.33-.374-.33.374zm0 0c-.234-.206-.622-.336-1.055-.336-.432 0-.82.131-1.053.336m0 0s0 0 0 0l-.33-.375.33.375zm0 0c-.54.476-1.32.582-1.97.275m0 0l.213-.453-.214.453s0 0 0 0zm24.357 24.88a.701.701 0 01-.177.574l.177-.573zm-.775.789h.27a.824.824 0 01-.267.044H16.939a.824.824 0 01-.267-.044h41.386zm-41.672-.172a.7.7 0 01-.22-.616h0l2.742-18.468h0a.744.744 0 01.47-.573l-.063.412-2.867 18.841-.062.404zm3.423-19.67h-.397a.825.825 0 01.268-.044h3.756l.09-.388c.523-2.262 2.593-2.947 2.838-3.025l.197-.063.095-.183c1.12-2.163 3.44-2.274 3.7-2.282l.203-.007.14-.146c1.37-1.424 3.23-1.44 4.227-1.193l.195.048.174-.1c1.737-.995 3.526-.506 4.41 0l.174.1.194-.048c.998-.247 2.856-.23 4.227 1.193l.14.146.203.006c.263.01 2.58.12 3.7 2.283l.096.183.196.063c.241.077 2.314.759 2.839 3.025l.09.388h3.755c.095 0 .186.015.269.044H19.809zm6.952-3.102h0a.886.886 0 00-.34.128 2.92 2.92 0 00-.267.183 7.56 7.56 0 00-.628.542c-.435.415-.931.966-1.203 1.466l-.404.739h27.162l-.404-.74a11.092 11.092 0 00-1.413-1.967 2.58 2.58 0 00-.18-.177.99.99 0 00-.102-.08h-.002a.575.575 0 00-.25-.094h0a.766.766 0 01-.66-.542h0c-.187-.672-.833-1.154-1.43-1.438-.614-.29-1.362-.461-1.957-.364a.8.8 0 01-.805-.35h0c-.185-.293-.468-.515-.764-.677a3.82 3.82 0 00-.99-.364c-.67-.15-1.46-.162-2.026.105a.818.818 0 01-.883-.12h0c-.466-.41-1.114-.586-1.716-.586-.603 0-1.25.177-1.714.586h0a.819.819 0 01-.883.12h0c-.564-.266-1.235-.26-1.814-.096-.578.165-1.148.512-1.475 1.032h0a.798.798 0 01-.805.35h0c-.585-.095-1.332.07-1.947.359-.6.28-1.25.762-1.44 1.443a.766.766 0 01-.66.542zm.202.97a.043.043 0 010 0z" fill="#FFFDFB" stroke="#FFFDFB"/></svg>