<svg viewBox="0 0 75 75" fill="none" xmlns="http://www.w3.org/2000/svg"><rect width="75" height="75" rx="37.5" fill="#FAC663"/><path d="M33.028 31.133a3.86 3.86 0 00-.308 1.536c.006 1.065.45 2.075 1.252 2.844a4.514 4.514 0 003.01 1.244 4.643 4.643 0 002.507-.649 4.634 4.634 0 002.509.649 4.52 4.52 0 002.987-1.223c.8-.756 1.252-1.753 1.273-2.807a3.852 3.852 0 00-.443-1.88c-.28-.539-2.555-2.87-3.36-3.726-.2-.214.34.535.111.723-.229.188-.974-.11-.773.104.728.773 2.796 2.903 3.03 3.351.23.44.34.914.33 1.408-.033 1.643-1.434 2.968-3.189 3.018a3.45 3.45 0 01-2.133-.655.583.583 0 00-.683 0 3.453 3.453 0 01-2.133.655c-1.75-.05-3.182-1.423-3.19-3.062a2.889 2.889 0 01.23-1.15c.358-.844 1.133-1.8 2.59-3.193 1.37-1.31 3.582-1.47 5.148-.372a.58.58 0 00.773-.104.495.495 0 00-.11-.723c-2.008-1.407-4.845-1.202-6.6.477-1.588 1.518-2.407 2.542-2.828 3.535zm3.547-5.191c1.419 0 2.574-1.383 2.574-3.081 0-1.699-1.155-3.08-2.574-3.08-1.42 0-2.574 1.381-2.574 3.08 0 1.698 1.155 3.08 2.574 3.08zm0-5.13c.796 0 1.47.939 1.47 2.049 0 1.11-.674 2.048-1.47 2.048-.797 0-1.47-.938-1.47-2.048s.673-2.048 1.47-2.048z" fill="#FFFDFB"/><path d="M36.575 20.813c.796 0 1.47.938 1.47 2.048s-.674 2.048-1.47 2.048c-.797 0-1.47-.938-1.47-2.048s.673-2.048 1.47-2.048zm-5.274 8.82c1.146 0 2.043-1.057 2.043-2.406 0-1.35-.898-2.407-2.043-2.407s-2.042 1.057-2.042 2.407.897 2.406 2.042 2.406zm0-3.78c.509 0 .938.629.938 1.374 0 .745-.43 1.374-.938 1.374s-.938-.63-.938-1.374c0-.745.43-1.374.938-1.374z" fill="#FFFDFB"/><path d="M31.301 25.853c.509 0 .938.629.938 1.374 0 .745-.43 1.374-.938 1.374s-.938-.63-.938-1.374c0-.745.43-1.374.938-1.374zm16.166 3.78c1.146 0 2.043-1.057 2.043-2.406 0-1.35-.897-2.407-2.043-2.407-1.145 0-2.042 1.057-2.042 2.407s.897 2.406 2.042 2.406zm0-3.78c.509 0 .938.629.938 1.374 0 .745-.43 1.374-.938 1.374s-.938-.63-.938-1.374c0-.745.43-1.374.938-1.374z" fill="#FFFDFB"/><path d="M47.467 25.853c.509 0 .938.629.938 1.374 0 .745-.43 1.374-.938 1.374s-.938-.63-.938-1.374c0-.745.43-1.374.938-1.374zm-4.429.089c1.419 0 2.573-1.383 2.573-3.081 0-1.699-1.154-3.08-2.573-3.08-1.42 0-2.574 1.381-2.574 3.08 0 1.698 1.154 3.08 2.574 3.08zm0-5.13c.796 0 1.469.939 1.469 2.049 0 1.11-.673 2.048-1.47 2.048-.796 0-1.469-.938-1.469-2.048s.673-2.048 1.47-2.048z" fill="#FFFDFB"/><path d="M43.038 20.813c.796 0 1.469.938 1.469 2.048s-.673 2.048-1.47 2.048c-.796 0-1.469-.938-1.469-2.048s.673-2.048 1.47-2.048zm10.491 15.4a3.051 3.051 0 00-2.096-.812c-.792 0-1.536.289-2.096.812l-3.25 3.039a3.052 3.052 0 00-2.195-.91h-4.655c-.305 0 .582.23.582.516 0 .285-.887.516-.582.516h4.655c1.026 0 1.86.78 1.86 1.74 0 .958-.834 1.738-1.86 1.738h-4.655c-.305 0-.553.231-.553.516 0 .286.248.517.553.517h4.655c1.635 0 2.964-1.243 2.964-2.772a2.6 2.6 0 00-.18-.953l.019-.016 3.423-3.2a1.955 1.955 0 012.63 0 1.662 1.662 0 010 2.458l-6.863 6.417h-6.329c-.305 0 .264.23.264.516 0 .285-.306.516 0 .516h6.294a.572.572 0 00.39-.15l7.025-6.569a2.649 2.649 0 000-3.919z" fill="#FFFDFB"/><path d="M39.96 45.819h-2.513a.572.572 0 00-.388.149l-1.737 1.603-4.243-3.967a3.152 3.152 0 01-.122-.87c0-1.848 1.607-3.351 3.583-3.351a.592.592 0 00.096-.009h4.854c.305 0 .552-.23.552-.516 0-.285-.247-.516-.552-.516h-5.387a.58.58 0 00-.248.055c-2.214.305-3.928 2.061-4 4.198l-.445-.417a.58.58 0 00-.781 0l-2.926 2.736a.52.52 0 00-.051.055l-4.899 5.124a.497.497 0 00-.14.343l-.009 4.243c0 .285.246.516.551.517l9.1.024h.002a.572.572 0 00.39-.151l5.885-5.502a.5.5 0 00.162-.365.5.5 0 00-.162-.365l-.501-.468 1.643-1.517h2.287c.305 0 .552-.232.552-.517 0-.285-.247-.516-.552-.516zm-9.931 8.367l-8.32-.021.008-3.53 4.4-4.603 6.317 5.906-2.405 2.248zm3.22-3.01l-6.341-5.929 2.111-1.974 6.341 5.929-2.111 1.974z" fill="#FFFDFB"/></svg>