<svg viewBox="0 0 75 75" fill="none" xmlns="http://www.w3.org/2000/svg"><rect width="75" height="75" rx="37.5" fill="#FAC663"/><path d="M60.164 34.306c-.016-.335-.213-.956-1.36-1.352l-30.59-10.528c-1.567-.54-3.307.227-3.878 1.712l-.828 2.153-1.863 4.846c-.571 1.484.24 3.131 1.809 3.672l8.915 3.068a3.28 3.28 0 00.728 2.676l-1.9 4.939a.612.612 0 01-.573.38H25.06v-1.719c0-.947-.814-1.719-1.816-1.719h-1.21c-.334 0-.605.257-.605.573v9.167c0 .317.27.573.605.573h1.21c1.002 0 1.816-.77 1.816-1.719V49.31h5.564c1.777 0 3.38-1.062 3.986-2.643l1.86-4.835c1.064-.141 2.03-.73 2.604-1.648l10.419 3.586c.34.117.689.172 1.032.172 1.04 0 2.029-.511 2.582-1.366l1.196.412a1.273 1.273 0 00.925-.038c.292-.13.515-.36.625-.646l1.657-4.309c.201-.524-.029-1.098-.517-1.374l1.94-.857c1.107-.488 1.246-1.123 1.23-1.458zM23.85 51.028c0 .316-.272.573-.606.573h-.605v-8.02h.605c.334 0 .606.256.606.572v6.875zm9.623-4.753c-.434 1.13-1.579 1.889-2.849 1.889H25.06v-1.146h5.564c.763 0 1.45-.456 1.711-1.134l1.738-4.519a3.791 3.791 0 001.126.422l-1.726 4.488zm2.565-5.558h-.042a2.567 2.567 0 01-.87-.14 2.456 2.456 0 01-.87-.516 2.205 2.205 0 01-.72-1.782l4.37 1.503a2.443 2.443 0 01-1.868.935zm20.334-3.114l-1.655 4.308-1.139-.392 1.57-4.084.322-.142.902.31zm2.05-2.877l-3.236 1.428-.776.342-.909.402c-1.066.47-2.9.546-4.006.165l-23.196-7.98c-.314-.109.476.436.362.734-.114.297-1.09.234-.776.342l23.196 7.981c.61.21 1.36.312 2.126.312.838 0 1.693-.122 2.401-.36l-1.374 3.573c-.342.891-1.386 1.352-2.327 1.028l-26.04-8.961c-.94-.325-1.427-1.313-1.085-2.203l1.036-2.694c.345.503.859.908 1.499 1.128l.569.196a.615.615 0 00.775-.342.565.565 0 00-.362-.735l-.568-.196c-.941-.324-1.428-1.312-1.086-2.203l.207-.538.621-1.615c.343-.891 1.387-1.352 2.328-1.028l30.589 10.53c.389.133.532.273.561.324-.024.054-.154.204-.529.37z" fill="#FFFDFB"/><path d="M55.186 36.154l3.236-1.428c.375-.166.505-.316.53-.37-.03-.052-.173-.191-.562-.325L27.8 23.502c-.94-.324-1.984.137-2.327 1.028l-.62 1.615-.208.538c-.342.891.145 1.88 1.086 2.203l.568.196 23.196 7.981c1.105.381 2.94.305 4.006-.165l.909-.401.775-.343h.001z" fill="#FFFDFB"/></svg>