<svg viewBox="0 0 75 75" fill="none" xmlns="http://www.w3.org/2000/svg"><rect width="75" height="75" rx="37.5" fill="#FAC663"/><path d="M49.6 25.252a.675.675 0 110 1.35h-6.04a.675.675 0 110-1.35h6.04zm-2.425 3.723a.675.675 0 00-.675-.675h-2.94a.675.675 0 000 1.35h2.94a.675.675 0 00.675-.675zm-4.29 3.048c0 .373.302.676.675.676h6.04a.675.675 0 100-1.35h-6.04a.675.675 0 00-.676.674zm4.29 3.05a.675.675 0 00-.675-.676h-2.94a.675.675 0 100 1.35h2.94a.675.675 0 00.675-.674zm-4.29 3.048c0 .373.302.675.675.675h6.04a.675.675 0 000-1.35h-6.04a.675.675 0 00-.676.675zm1.151 12.264c0 5.393-4.331 9.78-9.655 9.78-5.324 0-9.656-4.387-9.656-9.78 0-3.495 1.812-6.67 4.768-8.428V19.785c0-2.73 2.193-4.95 4.888-4.95s4.887 2.22 4.887 4.95v22.172c2.956 1.755 4.768 4.932 4.768 8.428zm-1.34 0c0-2.965-1.626-6.227-4.246-7.575l-.522-.268V19.786c0-1.665-1.904-3.6-3.547-3.6-1.643 0-3.548 1.935-3.548 3.6v22.756l-.522.268c-2.62 1.349-4.246 4.61-4.246 7.575 0 4.327 4.043 8.43 8.316 8.43 4.272 0 8.316-4.103 8.316-8.43zm-2.156 0c0 3.44-2.762 6.238-6.16 6.238-3.395 0-6.158-2.798-6.158-6.238 0-2.82 2.448-5.295 5.142-6.02l.353-.096V33.018a.664.664 0 011.328 0v11.25l.354.096c2.694.726 5.141 3.202 5.141 6.02zm-5.311-4.168c-.147-.66-.778-.505-1.447-.35-2.334.535-3.965 2.603-3.965 5.03 0 .686 0 1.422.87 1.422.461 0 .568-.766.568-1.453 0-1.233.753-3.074 2.527-3.486.66-.154 1.596-.494 1.447-1.163z" fill="#FFFDFB"/></svg>