<svg viewBox="0 0 75 75" fill="none" xmlns="http://www.w3.org/2000/svg"><rect width="75" height="75" rx="37.5" fill="#FAC663"/><path d="M56.52 25.38c-.274-.22-.656-.271-1-.168-1.276.384-2.236 1.149-2.698 1.574a4.824 4.824 0 00-2.627 0c-.467-.43-1.446-1.209-2.745-1.588-.387-.113-.807 0-1.071.293a.896.896 0 00-.172.902c.324.92.849 2.37 1.033 2.876a3.214 3.214 0 00-.149.791c-.016.262-.01.513.012.753l-.363.713c-.237.468-.713.792-1.265.863-2.008.257-5.916.775-9.534 1.364-4.682.76-6.537 1.262-7.332 1.57a6.647 6.647 0 00-2.771-2.224c-1.709-.741-4.568-2.354-4.516-4.822.047-2.235.958-3.554 1.714-4.268.323-.305.492-.724.465-1.15a1.488 1.488 0 00-.611-1.095c-.698-.517-1.695-.427-2.27.206-1.913 2.106-2.372 5.022-2.475 6.573-.103 1.564.392 3.01 1.472 4.3.775.924 1.832 1.748 3.143 2.449 1.27.679 2.189 1.763 2.586 3.052.035.113.051.23.049.349l-.013.595a6.78 6.78 0 01-.075.871l-.435 2.883c-.17 1.132-.953 2.083-2.049 2.605-.76.363-1.196 1.136-1.082 1.923l.796 5.504c.041.285.303.497.613.497h3.274a.677.677 0 00.372-.103.554.554 0 00.241-.624l-.035-.118c-.257-.859-.961-1.516-1.856-1.77l-.154-1.177c-.043-.33.159-.645.492-.768l3.128-1.154c0 .03-.002.06-.004.09v.011a63.497 63.497 0 00-.07 1.457 2.02 2.02 0 00.662 1.553l2.625 2.435a.644.644 0 00.438.168h3.795c.327 0 .602-.247.62-.55.06-1.052-.738-1.963-1.862-2.121l-1.086-.153-.448-.653a.893.893 0 01.018-1.047l2.96-4.021c.9-.258 4.695-1.276 6.92-.794.03.272.11.538.24.787l4.317 8.23c.103.197.32.322.556.322h2.936a.68.68 0 00.367-.1.555.555 0 00.25-.613l-.199-.74c-.192-.713-.767-1.26-1.49-1.474l.718-5.801c.03-.242.108-.477.23-.693.446-.792 1.324-2.315 2.177-3.601a7.839 7.839 0 001.246-3.36c.221-1.807.655-4.115.762-4.677.477-.633.696-1.47.636-2.452a3.213 3.213 0 00-.148-.79c.185-.512.717-1.982 1.04-2.9a.882.882 0 00-.298-.99zM25.027 47.943c-.855.315-1.374 1.127-1.264 1.974l.207 1.583a.6.6 0 00.542.501c.36.04.682.192.922.421h-1.742l-.724-5.006a.722.722 0 01.421-.749c1.374-.655 2.351-1.855 2.664-3.248 1.113 1.218 1.907 2.369 2.293 3.3l-3.32 1.224zm27.2-7.996c-.87 1.314-1.763 2.862-2.218 3.668a2.963 2.963 0 00-.363 1.096l-.34 2.737-.747-3.431c-.07-.325.01-.665.222-.932l1.705-2.151c.942-1.189 1.37-2.652 1.207-4.12-.035-.315-.34-.544-.68-.511-.339.032-.586.314-.55.63a4.517 4.517 0 01-.974 3.321l-1.705 2.15a2.201 2.201 0 00-.438 1.84l1.522 6.988c.058.268.312.46.607.46.46 0 .86.29.972.704l.007.027H48.68l-4.147-7.908a1.104 1.104 0 01-.12-.648l.614-5.05c.038-.316-.206-.6-.546-.635-.34-.036-.645.19-.684.506l-.533 4.39c-2.02-.355-4.795.194-6.371.583a2.747 2.747 0 00-.622-2.22l-.904-1.084a.651.651 0 00-.868-.102.547.547 0 00-.11.805l.904 1.083c.505.606.532 1.438.066 2.07L32.28 48.4a1.97 1.97 0 00-.041 2.31l.6.874c.095.14.252.234.429.26l1.363.19c.28.04.513.186.657.39H32.52l-2.444-2.268a.919.919 0 01-.3-.703c.015-.414.037-.895.068-1.43.137-1.837-1.799-4.219-2.966-5.475a1.13 1.13 0 01-.31-.794l.07-3.303c.002-.057-.101-.422-.101-.422-.486-1.578-1.608-2.903-3.159-3.732-3.491-1.866-4.1-4.12-3.997-5.683.218-3.284 1.464-5.109 2.187-5.904a.415.415 0 01.55-.05c.12.09.145.206.148.267a.346.346 0 01-.112.277c-.913.863-2.013 2.439-2.068 5.05-.066 3.118 3.247 5.025 5.228 5.885 1.062.46 1.95 1.238 2.503 2.19l.034.057c.091.141.244.24.418.27.177.03.36-.012.5-.116.644-.477 5.45-1.553 16.876-3.014a2.91 2.91 0 001.99-1.145c.114.171.245.33.395.473.626.601 1.524.917 2.602.917l1.623-.001h.01a4.503 4.503 0 001.582-.23c-.177.99-.405 2.355-.548 3.52a6.738 6.738 0 01-1.07 2.888zm2.317-10.878a.535.535 0 00.001.399c.082.204.131.425.145.656.052.843-.152 1.51-.59 1.931-.405.388-1.03.583-1.81.566h-.019c-.005 0-1.533-.002-1.562 0-.77.013-1.39-.181-1.791-.566-.439-.42-.643-1.088-.591-1.93.014-.232.063-.453.145-.657a.535.535 0 00.002-.396l-.001-.004c-.06-.162-.566-1.56-.943-2.619a6.147 6.147 0 012.017 1.371c.174.194.465.26.716.162.791-.31 1.7-.31 2.492 0 .25.097.54.032.714-.16.009-.01.81-.883 2.018-1.373a494.81 494.81 0 01-.943 2.62z" fill="#FFFDFB"/><path d="M48.473 29.07l.001.003c.363-.948.363-.948 1.073-1.252a6.147 6.147 0 00-2.017-1.37c.377 1.059.884 2.456.943 2.618zm7.014-2.62a6.148 6.148 0 00-2.018 1.372c1.025.3 1.037.521 1.074 1.223l.001.025c.058-.16.566-1.56.943-2.62zm-33.92-3.74c-.723.795-1.969 2.62-2.187 5.904l.705-.36c.055-2.611 1.155-4.187 2.068-5.05a.346.346 0 00.112-.277.356.356 0 00-.148-.266.415.415 0 00-.55.049z" fill="#FFFDFB"/></svg>