<svg viewBox="0 0 75 75" fill="none" xmlns="http://www.w3.org/2000/svg"><rect width="75" height="75" rx="37.5" fill="#FAC663"/><path d="M58.379 39.193c-.184-.186-3.672-4.545-11.29-4.684-.735-1.298-3.535-5.518-8.078-5.518h-.138l-2.02-3.895c-.137-.232-.367-.37-.596-.37h-3.12c-.276 0-.506.138-.598.37l-1.835 3.849h-.597c-.184 0-4.498-.325-8.996 5.518h-3.488c-.321 0-.596.232-.688.556-.046.279-1.423 6.956.872 9.83.734.882 1.698 1.345 2.891 1.345h.964a4.723 4.723 0 004.681 4.08 4.722 4.722 0 004.682-4.08h13.401a4.723 4.723 0 004.682 4.08 4.723 4.723 0 004.681-4.08h4.039a.71.71 0 00.688-.695v-5.89c0-.138-.045-.324-.137-.416zM39.01 30.336c3.212 0 5.415 2.69 6.425 4.173h-9.96v-4.173h3.535zm-5.416-4.22h2.249l1.469 2.875h-5.095l1.377-2.875zm-3.534 4.22h4.085v4.173H22.9c3.718-4.312 7.068-4.173 7.16-4.173zM26.343 48.93c-1.835 0-3.35-1.53-3.35-3.385 0-1.855 1.515-3.385 3.35-3.385 1.836 0 3.35 1.53 3.35 3.385.047 1.855-1.468 3.385-3.35 3.385zm22.765 0c-1.836 0-3.35-1.53-3.35-3.385 0-1.855 1.514-3.385 3.35-3.385s3.35 1.53 3.35 3.385c0 1.855-1.468 3.385-3.35 3.385zm8.032-4.08h-3.35a4.723 4.723 0 00-4.682-4.081 4.723 4.723 0 00-4.682 4.08H31.025a4.723 4.723 0 00-4.681-4.08 4.723 4.723 0 00-4.682 4.08h-.964c-.78 0-1.377-.278-1.836-.834-1.422-1.809-1.055-6.028-.688-8.115h28.501c6.38 0 9.73 3.2 10.465 3.988v4.962z" fill="#FFFDFB"/><path d="M33.595 26.116h2.249l1.469 2.875h-5.095l1.377-2.875zM26.343 48.93c-1.835 0-3.35-1.53-3.35-3.385 0-1.855 1.515-3.385 3.35-3.385 1.836 0 3.35 1.53 3.35 3.385.047 1.855-1.468 3.385-3.35 3.385zm22.765 0c-1.836 0-3.35-1.53-3.35-3.385 0-1.855 1.514-3.385 3.35-3.385s3.35 1.53 3.35 3.385c0 1.855-1.468 3.385-3.35 3.385z" fill="#FFFDFB"/></svg>