<svg viewBox="0 0 411 403" fill="none" xmlns="http://www.w3.org/2000/svg"><path d="M108.719 229.963c50.233-7.243 89.643 55.383 51.997 84.796-16.237 12.685-39.81 11.477-58.239.786-42.562-24.694-36.89-79.37 6.242-85.582zm41.258-20.666c-41.642 32.534-109.269-28.324-78.775-70.84 13.894-19.369 44.3-22.697 68.999-4.653 27.692 20.218 33.186 57.203 9.776 75.493z" fill="#FAC663" fill-opacity=".15"/><path d="M258.869 326.598c4.536-6.115 13.997-15.162 24.624-23.704 11.226-9.038 23.751-17.515 33.105-21.399 25.292-10.454 42.64-46.522 13.751-70.712-26.709-22.36-46.13-4.725-70.88-26.355-24.999-21.872-53.781-19.366-71.579-3.899-16.47 14.317-23.523 39.739-9.413 67.187 15.042 29.243-6.737 43.772 8.499 75.082 16.478 33.924 55.673 25.695 71.893 3.8zM223.267 152.04c-11.779 9.202-27.231 10.276-41.019 4.214-40.996-18.028-47.171-82.502-8.638-97.766 48.723-19.323 91.276 61.035 49.657 93.552z" fill="#FAC663" fill-opacity=".15"/><path d="M279.263 184.915c-38.889-22.216-38.367-86.875 1.71-97.97 48.273-13.366 83.14 64.408 43.051 95.73-12.866 10.052-29.978 10.686-44.761 2.24z" fill="#FAC663" fill-opacity=".15"/></svg>